<svg xmlns="http://www.w3.org/2000/svg" xmlns:xlink="http://www.w3.org/1999/xlink" width="1024" height="1024">
  <defs>
    <linearGradient id="b">
      <stop offset="0" style="stop-color:#f4e3d7;stop-opacity:1"/>
      <stop offset="1" style="stop-color:#f3a66b;stop-opacity:1"/>
    </linearGradient>
    <linearGradient id="a">
      <stop offset="0" style="stop-color:#8a3200;stop-opacity:1"/>
      <stop offset="1" style="stop-color:#501616;stop-opacity:1"/>
    </linearGradient>
    <linearGradient xlink:href="#a" id="c" x1="435.263" x2="631.509" y1="360.413" y2="360.413" gradientTransform="matrix(1.88413 0 0 1.70884 -591.737 -135.95)" gradientUnits="userSpaceOnUse"/>
    <linearGradient xlink:href="#b" id="d" x1="501.752" x2="563.287" y1="145.636" y2="145.636" gradientUnits="userSpaceOnUse"/>
  </defs>
  <g style="stroke:#deaa87">
    <path d="M107.352 440.344C83.932 589.29 133.95 716.67 202.532 790.85c62.383 67.476 95.466 54.855 141.55 84.38 33.853 21.88 32.98 30.388 61.013 77.892 31.37-77.588 62.843-76.333 151.885-137.175 78.88-42.887 116.063-116.706 133.655-226.314 5.84-49.493.81-77.468-2.44-153.616-237.546 30.586-280.089 39.05-580.843 4.327z" style="fill:none;stroke:#deaa87;stroke-width:21.9198;stroke-linecap:round;stroke-linejoin:round;stroke-dasharray:none;stroke-opacity:1" transform="matrix(1.0037 0 0 1.0192 -9.855 -18.398)"/>
    <path d="M377.086 192.122c-32.531-30.838 5.173-80.397 45.08-118.752 36.759-6.157 49.663 18.506 53.529 36.353-43.21 29.778-50.166 24.46-73.252 77.552-7.265 4.051-19.539 10.363-25.357 4.847z" style="display:inline;fill:#f4e3d7;stroke:#deaa87;stroke-width:24.9262;stroke-linecap:round;stroke-linejoin:round;stroke-dasharray:none;stroke-opacity:1" transform="matrix(1.0037 0 0 1.0192 -9.855 -18.398)"/>
    <path d="M318.218 466.671c255.268-3.27 214.86-.34 318.211-15.413 129.85-18.938 129.648-96.44 48.215-173.947-103.974-88.527-146.713-85.7-279.64-101.287C236.905 154.745 99.918 278.34 77.15 345.568c-22.77 67.229-14.2 124.373 241.068 121.103Z" style="fill:none;stroke:#deaa87;stroke-width:21.9772;stroke-linecap:round;stroke-linejoin:round;stroke-dasharray:none;stroke-opacity:1" transform="matrix(1.0037 0 0 1.0192 -9.855 -18.398)"/>
  </g>
  <path d="M317.1 167.233C95.41 211.929 19.547 396.647 95.055 420.982c3.034-91.374 118.91-171.636 222.047-253.749Zm-207.485 263.01 69.161 11.112c-47.927 146.94-4.853 245.722 129.225 407.479-213.554-75.32-206.88-326.6-198.386-418.59Z" style="display:inline;fill:#f4e3d7;stroke:none;stroke-width:11.8976;stroke-linecap:round;stroke-linejoin:round;stroke-dasharray:none;stroke-opacity:1"/>
  <path d="M325.535 167.157S62.442 285.392 102.736 429.421c144.583 34.396 417.157 21.497 417.157 21.497 86.118-65.924 141.423-99.603 120.88-210.67-109.03-83.838-225.17-68.79-315.238-73.089z" style="fill:#a40;stroke:none;stroke-width:21.5321;stroke-linecap:round;stroke-linejoin:round;stroke-dasharray:none;stroke-opacity:1"/>
  <path d="M633.663 242.397c48.606 40.12 220.258 184.194-106.66 199.921 83.503-73.626 103.333-112.66 106.66-199.92z" style="display:inline;fill:#501616;stroke:none;stroke-width:21.5321;stroke-linecap:round;stroke-linejoin:round;stroke-dasharray:none;stroke-opacity:1"/>
  <path d="m166.732 438.019 433.749 70.94c40.293 286.625-191.988 351.832-248.872 352.549l-49.776-25.796C116.957 647.255 164.361 572.733 166.732 438.02Z" style="fill:#a40;stroke:none;stroke-width:21.5321;stroke-linecap:round;stroke-linejoin:round;stroke-dasharray:none;stroke-opacity:1"/>
  <path d="M228.357 450.917c116.141 40.127 239.392 52.309 369.753 66.64l-2.37-75.239c-127.201 13.615-244.921 14.332-367.383 8.599Z" style="fill:url(#c);stroke:none;stroke-width:21.5321;stroke-linecap:round;stroke-linejoin:round;stroke-dasharray:none;stroke-opacity:1"/>
  <path d="m673.957 429.42-92.438 17.198c49.746 203.687-63.763 397.004-248.872 406.291 32.392 24.364 45.824 53.027 61.624 79.54 12.642-30.096 30.024-55.892 52.145-70.941C644.735 780.76 693.14 606.454 673.957 429.42z" style="fill:#803300;stroke:none;stroke-width:21.5321;stroke-linecap:round;stroke-linejoin:round;stroke-dasharray:none;stroke-opacity:1"/>
  <g style="stroke:#280b0b">
    <path d="M371.106 332.108c-12.072 86.602 13.71 160.664 49.061 203.794 32.156 39.232 49.209 31.894 72.963 49.061 17.45 12.721 17 17.668 31.45 45.288 16.17-45.112 32.393-44.382 78.29-79.757 40.66-24.936 59.826-67.856 68.894-131.585 3.01-28.777.417-45.042-1.258-89.317-122.445 17.784-144.374 22.705-299.4 2.516z" style="fill:none;stroke:#280b0b;stroke-width:12;stroke-linecap:round;stroke-linejoin:round;stroke-dasharray:none;stroke-opacity:1" transform="matrix(1.88413 0 0 1.70884 -591.737 -135.95)"/>
    <path d="M513.258 176.118c-14.525-16.007 2.31-41.732 20.128-61.641 16.413-3.196 22.175 9.606 23.901 18.87-19.293 15.457-22.399 12.696-32.707 40.255-3.244 2.103-8.724 5.379-11.322 2.516z" style="display:inline;fill:url(#d);stroke:#280b0b;stroke-width:12;stroke-linecap:round;stroke-linejoin:round;stroke-dasharray:none;stroke-opacity:1" transform="matrix(1.88413 0 0 1.70884 -591.737 -135.95)"/>
    <path d="M479.292 343.43c133.208-1.868 112.122-.194 166.054-8.806 67.76-10.82 67.655-55.099 25.16-99.38-54.257-50.578-76.56-48.963-145.926-57.868-87.72-12.157-159.205 58.456-171.086 96.865-11.882 38.409-7.41 71.057 125.798 69.189z" style="fill:none;stroke:#280b0b;stroke-width:12;stroke-linecap:round;stroke-linejoin:round;stroke-dasharray:none;stroke-opacity:1" transform="matrix(1.88413 0 0 1.70884 -591.737 -135.95)"/>
  </g>
  <g style="stroke:#280b0b">
    <path d="M392.556 296.82c22.083-46.088 46.575-70.699 87.93-97.994" style="fill:none;stroke:#280b0b;stroke-width:12.1296;stroke-linecap:round;stroke-linejoin:round;stroke-dasharray:none;stroke-opacity:1" transform="matrix(1.88413 0 0 1.70884 -591.737 -135.95)"/>
    <path d="M470.486 192.472c27.676 37.32 47.804 74.64 71.706 118.25m-114.477-93.091c14.257 33.127 22.224 52.416 42.771 80.512m-80.511-61.642 10.064 42.772" style="fill:none;stroke:#280b0b;stroke-width:12;stroke-linecap:round;stroke-linejoin:round;stroke-dasharray:none;stroke-opacity:1" transform="matrix(1.88413 0 0 1.70884 -591.737 -135.95)"/>
    <path d="M520.806 191.214c-36.062 38.997-51.997 57.867-74.221 113.218m150.958-1.258c-16.773-46.126-44.868-75.898-76.737-114.476" style="fill:none;stroke:#280b0b;stroke-width:12;stroke-linecap:round;stroke-linejoin:round;stroke-dasharray:none;stroke-opacity:1" transform="matrix(1.88413 0 0 1.70884 -591.737 -135.95)"/>
    <path d="M504.452 310.722c20.547-41.932 36.062-70.027 61.641-106.928m-7.548-13.838c52.416 41.513 64.577 47.803 93.091 109.444" style="fill:none;stroke:#280b0b;stroke-width:12;stroke-linecap:round;stroke-linejoin:round;stroke-dasharray:none;stroke-opacity:1" transform="matrix(1.88413 0 0 1.70884 -591.737 -135.95)"/>
    <path d="M571.125 294.369c17.193-19.29 34.385-37.32 40.256-69.19" style="fill:none;stroke:#280b0b;stroke-width:12;stroke-linecap:round;stroke-linejoin:round;stroke-dasharray:none;stroke-opacity:1" transform="matrix(1.88413 0 0 1.70884 -591.737 -135.95)"/>
  </g>
  <g style="display:inline;fill:#fff2ea;fill-opacity:1" transform="matrix(1.88413 0 0 1.70884 -591.737 -135.95)">
    <ellipse cx="397.523" cy="390.604" rx="12.58" ry="11.951" style="fill:#fff2ea;stroke:none;stroke-width:12;stroke-linecap:round;stroke-linejoin:round;stroke-dasharray:none;stroke-opacity:1;fill-opacity:1"/>
    <ellipse cx="427.715" cy="402.555" rx="8.806" ry="10.064" style="fill:#fff2ea;stroke:none;stroke-width:12;stroke-linecap:round;stroke-linejoin:round;stroke-dasharray:none;stroke-opacity:1;fill-opacity:1"/>
    <ellipse cx="396.265" cy="422.683" rx="12.58" ry="11.322" style="fill:#fff2ea;stroke:none;stroke-width:12;stroke-linecap:round;stroke-linejoin:round;stroke-dasharray:none;stroke-opacity:1;fill-opacity:1"/>
  </g>
  <ellipse cx="796.583" cy="371.655" rx="22.517" ry="19.347" style="fill:#2b1100;stroke:#deaa87;stroke-width:5.94878;stroke-linecap:round;stroke-linejoin:round;stroke-dasharray:none;stroke-opacity:1"/>
  <ellipse cx="817.687" cy="468.954" rx="17.507" ry="19.678" style="fill:#2b1100;stroke:#deaa87;stroke-width:5.29009;stroke-linecap:round;stroke-linejoin:round;stroke-dasharray:none;stroke-opacity:1"/>
  <ellipse cx="955.709" cy="467.377" rx="18.093" ry="19.638" style="fill:#2b1100;stroke:#deaa87;stroke-width:5.3722;stroke-linecap:round;stroke-linejoin:round;stroke-dasharray:none;stroke-opacity:1"/>
  <rect width="80.588" height="36.545" x="839.436" y="352.653" ry="18.273" style="fill:#2b1100;stroke:#deaa87;stroke-width:5.94878;stroke-linecap:round;stroke-linejoin:round;stroke-dasharray:none;stroke-opacity:1"/>
  <rect width="69.541" height="37.173" x="723.025" y="538.125" ry="18.587" style="fill:#2b1100;stroke:#deaa87;stroke-width:5.32647;stroke-linecap:round;stroke-linejoin:round;stroke-dasharray:none;stroke-opacity:1"/>
  <rect width="73.492" height="36.456" x="847.213" y="450.105" ry="18.228" style="fill:#2b1100;stroke:#deaa87;stroke-width:6.05508;stroke-linecap:round;stroke-linejoin:round;stroke-dasharray:none;stroke-opacity:1"/>
  <rect width="69.207" height="36.019" x="898.552" y="536.155" ry="18.01" style="fill:#2b1100;stroke:#deaa87;stroke-width:6.4703;stroke-linecap:round;stroke-linejoin:round;stroke-dasharray:none;stroke-opacity:1"/>
  <rect width="80.588" height="36.545" x="805.891" y="536.925" ry="18.273" style="fill:#2b1100;stroke:#deaa87;stroke-width:5.94878;stroke-linecap:round;stroke-linejoin:round;stroke-dasharray:none;stroke-opacity:1"/>
  <rect width="80.588" height="36.545" x="695.651" y="701.746" ry="18.273" style="fill:#2b1100;stroke:#deaa87;stroke-width:5.94878;stroke-linecap:round;stroke-linejoin:round;stroke-dasharray:none;stroke-opacity:1"/>
  <rect width="73.138" height="35.821" x="712.594" y="452.034" ry="17.911" style="fill:#2b1100;stroke:#deaa87;stroke-width:6.69696;stroke-linecap:round;stroke-linejoin:round;stroke-dasharray:none;stroke-opacity:1"/>
  <ellipse cx="736.49" cy="643.67" rx="22.517" ry="19.347" style="fill:#2b1100;stroke:#deaa87;stroke-width:5.94878;stroke-linecap:round;stroke-linejoin:round;stroke-dasharray:none;stroke-opacity:1"/>
  <ellipse cx="880.572" cy="642.089" rx="22.517" ry="19.347" style="fill:#2b1100;stroke:#deaa87;stroke-width:5.94878;stroke-linecap:round;stroke-linejoin:round;stroke-dasharray:none;stroke-opacity:1"/>
  <rect width="70.76" height="36.545" x="774.611" y="624.775" ry="18.273" style="fill:#2b1100;stroke:#deaa87;stroke-width:5.94878;stroke-linecap:round;stroke-linejoin:round;stroke-dasharray:none;stroke-opacity:1"/>
  <ellipse cx="815.416" cy="719.623" rx="22.517" ry="19.347" style="fill:#2b1100;stroke:#deaa87;stroke-width:5.94878;stroke-linecap:round;stroke-linejoin:round;stroke-dasharray:none;stroke-opacity:1"/>
</svg>
