<svg xmlns="http://www.w3.org/2000/svg" width="643.772" height="640.996" viewBox="0 0 482.829 480.747">
  <g fill="#c04d00">
    <path d="M414.837 112.805c-5.656.03-10.613-3.852-11.927-9.33-1.344-5.506 1.254-11.222 6.3-13.79l10.154-5.262c10.064-5.322 15.135-16.879 12.232-27.886l-7.95-30.455-33.512 46.97c-1.893 2.657-4.772 4.431-7.98 4.987a12.3 12.3 0 0 1-9.144-2.174c-5.441-3.942-6.695-11.528-2.813-17.005L405.06 9.932A24.4 24.4 0 0 1 422.703.083a24.537 24.537 0 0 1 19.053 6.791 10.77 10.77 0 0 1 3.178 5.507l9.909 37.92c5.751 21.987-4.373 45.047-24.465 55.654l-10.153 5.262a11.113 11.113 0 0 1-5.382 1.589z"/>
    <path d="M406.275 353.41c-9.754.06-19.144-3.762-26.053-10.643L138.026 100.572a36.685 36.685 0 0 1-10.793-25.994 36.685 36.685 0 0 1 10.793-25.993l26.053-25.933c34.618-34.619 97.002-24.465 129.656 8.684l11.497 11.497a48.93 48.93 0 0 0 44.156 13.331l4.773-.979c8.01-1.559 16.27.95 22.014 6.725l42.687 42.449c5.782 5.751 8.29 14.006 6.726 22.014l-.98 4.773c-3.392 16.024 1.47 32.717 12.967 44.4l20.181 20.063a85.61 85.61 0 0 1 25.073 60.552 85.625 85.625 0 0 1-25.073 60.552l-25.933 26.053c-6.821 6.76-15.995 10.583-25.564 10.643zM219.368 25.958a52.396 52.396 0 0 0-38.04 14.066l-25.934 25.933c-4.742 4.773-4.742 12.477 0 17.25L397.59 325.4c4.772 4.742 12.477 4.742 17.249 0l25.933-25.319c23.885-23.885 23.885-62.6 0-86.484l-20.062-20.062a73.36 73.36 0 0 1-19.817-66.913l.979-4.772-42.687-42.687 8.684-8.565-8.684 8.565-4.772.98c-24.064 4.831-48.929-2.724-66.297-20.063l-11.378-11.497a84.618 84.618 0 0 0-57.368-22.631z"/>
    <path d="M176.433 480.747c-10.518 0-21.005-1.01-31.314-3.058l-35.841-7.215a76.428 76.428 0 0 0-28.867 0l-13.576 2.813a36.636 36.636 0 0 1-32.904-10.154l-16.39-16.27a36.661 36.661 0 0 1-10.028-33.149l2.813-13.576a76.428 76.428 0 0 0 0-28.866L3.111 335.43c-10.428-51.986 5.716-105.746 43.057-143.357l100.551-99.94c2.294-2.324 5.412-3.608 8.685-3.608 3.273 0 6.39 1.284 8.684 3.607 4.742 4.772 4.742 12.477 0 17.249L63.907 209.56c-31.805 31.835-45.566 77.46-36.696 121.588l6.725 35.597a96.705 96.705 0 0 1 0 38.41l-2.694 13.576c-.854 4.038.4 8.225 3.303 11.133L50.57 445.89a12.19 12.19 0 0 0 11.133 3.303l13.947-2.323a96.705 96.705 0 0 1 38.41 0l35.842 7.215c44.125 8.87 89.751-4.892 121.587-36.696l100.18-100.181c4.773-4.743 12.478-4.743 17.25 0 2.323 2.293 3.607 5.411 3.607 8.684 0 3.273-1.284 6.391-3.608 8.684l-100.18 100.056a158.257 158.257 0 0 1-112.293 46.115zm82.689-367.942h-.854l-9.419-.735c-18.927-1.803-33.913-16.788-35.716-35.716l-.735-9.293a12.34 12.34 0 0 1 2.903-8.93c2.108-2.478 5.107-4.037 8.35-4.282 3.243-.275 6.45.765 8.929 2.903 2.479 2.108 4.038 5.106 4.282 8.35l.735 9.419a15.448 15.448 0 0 0 13.331 13.211l9.294.735c6.76.275 12.017 5.96 11.742 12.722-.275 6.76-5.96 12.017-12.722 11.742zm155.715 155.592h-.98l-9.293-.734c-18.928-1.804-33.913-16.789-35.716-35.716l-.735-9.42c-.49-6.665 4.468-12.506 11.133-13.086 3.243-.274 6.45.765 8.96 2.873a12.217 12.217 0 0 1 4.252 8.38l.735 9.293a15.436 15.436 0 0 0 13.211 13.332l9.42.734c6.76.275 12.016 5.961 11.742 12.722-.275 6.761-5.961 12.017-12.722 11.743zm-86.481-69.111h-.854l-9.419-.735c-18.837-1.833-33.758-16.76-35.597-35.597l-.854-9.663a12.34 12.34 0 0 1 2.903-8.93c2.108-2.478 5.106-4.037 8.35-4.282 3.243-.275 6.45.765 8.929 2.903 2.478 2.108 4.037 5.106 4.282 8.35l.735 9.419c.884 6.88 6.33 12.321 13.211 13.211l9.42.735c6.76.275 12.016 5.96 11.742 12.722-.275 6.76-5.961 12.017-12.722 11.742zm43.302-43.302h-.98l-9.419-.734c-18.927-1.804-33.913-16.789-35.716-35.716l-.735-9.42c-.55-6.76 4.498-12.662 11.253-13.211 6.761-.55 12.662 4.497 13.212 11.253l.734 9.419a15.018 15.018 0 0 0 13.212 13.211l9.419.735c6.761.275 12.017 5.96 11.742 12.722-.275 6.76-5.96 12.017-12.722 11.742z"/>
  </g>
</svg>
