<svg xmlns="http://www.w3.org/2000/svg" width="512" height="512">
  <path fill="#3c060c" d="M155.434 499.362c-43.616-12.884-56.04-31.45-83.078-53.613-1.898-.294-29.653-28.664-42.749-47.987-.414-.174-12.04-16.771-7.082-28.704 3.434-8.272 2.98-14.9-1.323-22.37-2.005-3.475-.802-8.018.173-12.575 2.753-17.399 30.522-6.521 32.032-27.782-2.593-37.75 8.285-71.493 30.802-101.546 4.009-5.319 5.318-9.355 1.777-15.435-4.61-7.91-6.147-17.065-8.686-26.299-5.826-6.628-7.283-120.361 66.161-160.424 14.833-3.18 24.321 6.642 24.481 7.07 5.586 9.113 6.775 19.082 8.94 28.823 7.697 34.544 29.64 55.591 64.317 61.217 30.428 4.944 60.87 9.702 89.934 20.58 3.581 1.335 5.572.72 6.708-3.168 6.067-20.766 15.902-39.875 26.473-58.624 6.44-11.412 11.318-23.439 15.3-35.867 6.415-20.084 24.054-27.073 42.068-16.035 14.619 8.94 25.029 22.049 33.608 36.628 24.107 38.018 29.866 89.266 24.829 128.5-1.92 29.917-15.196 51.598-36.255 72.174-2.632 5.653-3.14 10.905-1.176 16.945 7.524 14.7 7.11 30.067 6.842 46.062-.2 5.6 1.417 9.261 7.858 10.13.775.173 1.069.227 1.83.36 2.393.669 4.076 1.804 6.348 2.606 1.242.39 2.439.915 3.568 1.564 1.737.828 3.434 1.71 5.118 2.619.508.294.708.414 1.19.735.454.334.64.48 1.336 1.069a101.39 101.39 0 0 1 2.98 2.886c.668.695.828.882 1.243 1.35.4.494.56.708.935 1.243.802 1.27 1.47 2.165 2.165 3.554a8.95 8.95 0 0 1 .534 1.724c.24 2.94.188 5.426.134 8.366a12.973 12.973 0 0 1-.241 1.83c-.735 2.42-1.978 4.143-2.606 6.588-.187.535-.4 1.083-.641 1.604-2.74 3.568-.668 6.094 1.23 9.074.287.55.52 1.127.694 1.723.508 5.319.28 10.196.267 15.542a19.929 19.929 0 0 1-.213 1.817c-.334 1.27-.669 2.058-1.11 3.234a17.53 17.53 0 0 1-.494 1.483 23.852 23.852 0 0 1-1.604 3.248 66.295 66.295 0 0 0-2.138 4.102c-.467.844-.99 1.656-1.563 2.432a25.697 25.697 0 0 0-1.938 2.967l-1.082 1.643a70.195 70.195 0 0 1-1.07 1.71c-.298.481-.628.94-.988 1.377l-1.31 1.51c-6.62 9.606-14.76 18.002-22.677 26.54l-1.47 1.496-1.523 1.577a96.29 96.29 0 0 1-2.392 2.486c-1.537 1.496-2.526 2.418-3.648 3.808a24.817 24.817 0 0 1-1.831 1.938c-15.742 17.104-35.576 37.61-59.045 46.195-79.984 29.351-163.947 18.569-221.942 8.3z" style="stroke-width:13.3631"/>
  <path fill="#ef5335" d="M227.996 156.624c-.467-7.176-6.013-9.782-11.051-12.294-4.77-2.366-10.13-3.528-15.234-5.212-13.19-4.33-22.41-12.521-25.604-26.927 2.486-2.245 4.41-.788 5.907.669 15.808 15.367 36.08 20.86 56.593 26.03 19.537 4.905 39.314 8.994 58.036 16.838 18.133 7.577 35.038 17.065 50.058 29.827 5.546 4.717 6.267 4.57 9.087-.935.975-4.023 1.336-5.653 1.604-7.23.574-1.87 1.069-3.3.948-5.292-.16-3.046.348-5.519 1.778-11.104 5.612-34.25 24.601-63.395 38.86-94.344 1.376-3.114 2.365-6.642 6.775-7.804 5.706 3.488 3.862 9.354 4.21 13.777 1.335 16.637.76 33.355-2.019 50.46a181.405 181.405 0 0 1-21.38 62.272c-3.555 6.28-7.925 12-14.3 15.768-3.14 1.83-3.554 3.702-1.242 6.722 18.254 23.68 28.196 50.646 31.31 80.259 1.136 10.824.721 21.688.267 32.539-.12 2.806-.828 5.586-2.886 8.392-6.91 3.448-13.644 4.81-21.248 2.592-3.287-4.65-2.245-9.447-2.218-14.646.454-3.34.535-6.133-.147-9.38-1.243-3.609-.4-4.57-1.336-7.203-.321-1.216-.441-2.031-.735-3.234a54.976 54.976 0 0 0-.642-2.365c-.534-1.657-1.216-3.261-1.83-4.891-7.684-19.564-19.404-35.239-38.954-42.963-26.178-10.343-59.466-1.55-77.039 22.504-16.677 22.837-19.91 47.573-10.209 74.54.4 1.028.615 1.616 1.029 2.632l.762 1.737a13.363 13.363 0 0 1 .801 2.806 5.278 5.278 0 0 1-1.029 3.782c-9.621 2.993-18.548 6.909-28.663 8.031-1.337-.895-2.072-1.737-2.392-2.766-3.689-11.96-13.764-14.9-24.241-16.25-10.357-1.336-20.713-.48-30.228 4.785-1.697.935-3.5 1.737-6.013.935-3.074-4.009-1.443-7.844-.508-11.532a151.672 151.672 0 0 0 4.81-41.252 80.606 80.606 0 0 0-8.578-34.45c-9.582-19.11-25.63-20.005-43.698-13.805-2.752.548-4.97 1.43-7.724.535-1.015-1.016-1.122-1.911-.975-3.26.267-1.59 1.002-3.101 1.991-5.012l.976-1.817c.534-.99 1.002-2.005 1.496-2.994l.495-1.256c.267-.761.44-1.202.735-1.964.44-1.417 1.63-2.379 2.432-3.568.935-1.123 1.737-2.312 2.619-3.461.949-1.136 1.603-2.472 2.405-3.688a10.276 10.276 0 0 1 1.537-2.726c.428-.508.615-.709 1.363-1.484a16.048 16.048 0 0 0 2.74-3.741c26.619-33.85 66.32-45.542 107.987-56.513.922-.32 1.443-.468 2.512-1.07z" style="fill:#f05232;fill-opacity:1;stroke-width:13.3631"/>
  <path fill="#fef3ea" d="M217.613 361.935c8.018-1.23 14.566-5.72 22.183-6.655 1.884-.227 3.742-.748 6.147-1.202 5.653 2.846 10.303 6.334 13.844 11.144 6.2 8.46 14.406 15.328 23.813 18.762 15.395 5.613 32.125 8.633 47.586 1.002 9.862-4.864 20.793-8.9 28.464-17.398 6.521-7.216 12.748-14.833 12.895-25.457.067-4.343.401-8.82 5.426-11.225 7.136-.708 13.764-1.524 20.926-2.512 3.515-2.673 6.735-2.793 10.53-.508 14.834 3.127 29.28 5.612 42.856 11.492 9.06 3.929 9.354 4.664 4.143 12.749-.936 1.456-1.871 2.9-3.14 4.637-2.473 2.11-4.477 4.37-7.177 5.131-7.242 2.045-10.383 7.216-13.082 13.87-6.054 14.968-16.864 26.567-28.905 37.057-8.017 6.989-16.637 13.176-25.964 19.15a21.688 21.688 0 0 1-3.074 1.83c-1.47.615-2.592.935-3.942 1.844-2.472 1.497-4.623 2.673-7.216 4.09-20.152 10.89-41.466 17.024-63.288 21.26-54.842 10.677-108.602 6.494-161.012-13.136a206.607 206.607 0 0 1-47.546-25.564c-8.806-6.28-16.17-13.884-21.501-23.305-2.085-3.688-4.45-5.6-8.9-4.09-3.528 1.204-6.869.08-10.33-2.27-2.94-3.088-5.425-5.934-8.285-9.208 3.982-.174 6.989 2.459 10.757.214-3.434-5.586-3.06-11.225.414-16.798 1.804-2.886.642-5.292-1.87-7.323-3.769-3.073-5.96-7.323-8.446-11.399-2.365-3.875-1.657-6.24 2.593-7.95 7.857-3.14 15.862-5.56 24.802-6.549 1.95.829 2.926 2.005 3.247 3.542 4.222 19.991 17.024 33.929 32.392 46.076 5.826 4.597 20.232 4.29 26.967-.668 2.084-1.55 3.995-3.341 6.842-4.544 4.85-.574 7.082-3.113 7.55-7.857a10.303 10.303 0 0 1 .628-2.74c.828-1.643 1.697-2.606 3.474-3.167.709-.013 1.016-.04 1.123.094 7.483 9.154 14.258 18.869 23.626 26.432 2.993 2.406.735 5.56-2.245 7.35-5.573 3.34-12.642 2.272-18.067-2.526-2.405-2.138-4.757-6.922-8.312-3.474-3.274 3.194-.494 7.416 1.87 10.557 6.963 9.154 20.727 12.588 31.164 7.27 5.185-2.633 9.327-2.633 14.592 0 13.163 6.614 27.047 2.605 35.466-9.489a14.165 14.165 0 0 0 2.74-5.84c.4-2.405-.375-4.275-2.62-5.385-2.271-1.135-3.661.268-4.998 1.791-.721.815-1.322 1.737-2.004 2.58-4.637 5.772-10.837 7.736-17.96 6.881-3.996-.48-7.777-1.884-9.314-6.093-1.497-4.143 1.029-7.083 3.742-9.715 5.05-4.918 8.686-10.784 11.692-17.092 1.03-2.151 1.925-4.396 4.704-5.68z" style="stroke-width:13.3631"/>
  <path fill="#eaaf93" d="M51.015 392.804c5.158-.24 10.624 1.844 15.501-2.152 1.457-1.202 2.259-.026 2.846 1.31 8.914 20.112 26.232 31.323 44.433 41.372 27.889 15.395 57.996 23.92 89.48 28.223 33.207 4.544 66.267 3.702 99.02-3.033 21.074-4.317 41.56-10.811 61.404-20.513 4.049 5.052 4.918 10.878 4.624 17.105 7.39-2.125 13.029-9.407 21.875-5.693-25.016 16.624-52.33 27.943-81.689 34.504-62.917 7.81-72.829 1.736-116.34-4.196-9.66 1.243-18.44-2.031-27.287-4.81-46.891-14.687-84.335-42.63-113.88-82.104Z" style="stroke-width:13.3631"/>
  <path fill="#bd2e21" d="M410.056 327.966a65.42 65.42 0 0 1-10.076.347c2.592-22.944 1.336-45.648-4.931-67.724-5.586-19.71-14.125-38.285-27.956-53.88-2.378-2.673-3.207-3.835 1.002-5.8 11.6-5.372 17.185-16.142 22.103-27.087 6.949-15.448 12.642-31.35 15.675-48.642.4-.614.735-.708 1.497-.52 2.98 4.315 2.124 8.712 1.456 12.961-3.568 22.584-7.817 44.98-16.17 66.415-1.122 2.847-3.1 6.214 1.083 8.553 4.196 2.352 7.484 1.042 10.196-2.566 4.223-5.626 6.976-12.027 9.368-18.575 4.65-12.681 7.95-25.75 10.316-39.034 2.112-11.866 2.045-11.88 10.023-20.325-6.602-1.176-6.829-6.174-6.281-10.958.842-7.483.053-15.194 3.274-22.717 5.987-.334 7.537 4.143 9.22 7.978 5.48 12.414 8.339 25.604 9.903 38.98 1.216 10.29 2.004 20.606.668 31.11a83.024 83.024 0 0 1-6.348 23.585c-.28.495-.294.401-.267.401.053 0-.414.428-.441.749-5.746 9.487-11.52 18.655-17.225 27.862-1.203 1.924-2.285 3.474-4.17.708-1.804-2.673-3.407-6.388-7.403-3.207-3.568 2.846-5.773 6.24-3.046 11.265 7.082 13.096 11.331 27.18 14.164 41.746 2.072 10.771 1.31 21.622.936 32.46-.174 5.318-4.584 7.483-8.312 10.062-2.673 1.844-5.372 3.635-8.258 5.853z" style="fill:#c02c1f;fill-opacity:1;stroke-width:13.3631"/>
  <path fill="#fde2d7" d="M361.507 160.793a43.831 43.831 0 0 1-.307 4.036c-.895 2.058-.775 4.276-1.176 6.454-1.096 1.75-1.069 3.274-1.082 5.239-.054 1.87-.094 3.3-.268 5.225a6.802 6.802 0 0 1-.788 1.897c-.174 1.376-.134 2.499-.4 3.528-1.658 6.267-3.248 6.909-8.313 2.886-9.194-7.283-18.4-14.499-28.53-20.525-25.604-15.261-54.16-22.09-82.664-28.838-22.477-5.319-43.872-12.388-61.27-29.011-5.346-8.058-4.53-15.943.307-24.161 20.098 23.84 47.693 30.602 76.384 34.637 25.403 3.568 50.512 7.991 73.417 20.54 6.882 3.768 13.336 8.044 19.817 13.763 1.163-9.06 3.876-17.826 6.936-26.084.668-2.82 1.39-5.199 2.418-7.885 5.279-1.79 6.174 2.312 5.96 5.052-.708 9.006 3.675 18.04-.347 26.993-.775 1.737.147 3.822-.093 6.254z" style="fill:#f9d8c8;fill-opacity:1;stroke-width:13.3631"/>
  <path fill="#ea5738" d="M152.615 28.017c4.276 6.815 3.314 14.499 5.198 21.528.054.214 0 .454.067.655 4.877 13.87 2.74 26.539-3.114 40.17-6.975 16.236-3.808 33.354 4.05 49.109 2.445 4.904 1.643 6.909-3.341 9.047a197.026 197.026 0 0 0-42.589 24.534c-3.942-2.124-3.982-6.013-4.77-9.514-.522-2.299-.16-4.757-1.417-7.51-2.138-21.916-1.082-40.65 14.472-75.689 3.782-8.526 8.192-16.784 13.323-25.163l.829-1.59c.468-.882.775-1.35 1.296-2.151 1.43-1.818 2.459-3.876 3.688-5.813l1.23-2.125c3.969-5.319 5.024-12.107 11.078-15.501z" style="fill:#f05232;fill-opacity:1;stroke-width:13.3631"/>
  <path fill="#ebab8e" d="M390.893 449.597c-7.884-.187-14.125 2.633-19.484 7.577-1.643 1.524-3.34 2.098-5.278 1.07-2.138-1.137-1.47-2.714-.414-4.344a6.08 6.08 0 0 0-.187-7.31c-1.71-2.338-1.257-4.957-1.363-8.084 1.91-1.75 3.821-2.967 6.147-4.303 1.323-1.11 2.592-.615 3.955-1.27.28-.32.334-.24.267-.24a4.931 4.931 0 0 0 1.15-1.136c13.042-9.1 25.857-17.947 36.708-29.359 9.688-10.183 17.56-21.448 21.97-34.904.534-1.657.747-3.127 2.805-3.916 5.012-1.95 9.89-4.276 15.301-6.374.08 2.98-.534 5.746.254 8.873 1.082 4.276.307 8.526-2.445 12.308-1.056 1.443-3.475 2.9-2.045 4.944 1.056 1.51 3.234.2 4.918.16 1.296-.04 2.592-.147 4.383-.24-3.916 8.806-10.236 16.33-16.664 23.625-14.526 16.49-29.706 32.38-49.978 42.936z" style="stroke-width:13.3631"/>
  <path fill="#f3e2d6" d="M102.116 240.598c-.254.267-.535.601-.535.802a2.312 2.312 0 0 1-.668 1.817c-.254.267-.535.668-.561.909a6.454 6.454 0 0 1-.789 2.271c-1.19 2.58-.4 5.052-1.39 7.751-3.568 6.762-9.22 11.68-11.946 19.042-3.608 7.083-5.386 14.205-6.802 21.475-.548 2.806-.775 6.468-5.813 5.292-2.379-49.885 17.813-88.397 58.263-116.433 26.392-18.268 56.82-24.749 87.983-28.637a13.63 13.63 0 0 1 8.152 1.162c.534.134.534 0 .48-.013-.053-.027.241.4.228.641-1.497 4.09-5.145 3.822-8.218 4.41-30.335 5.652-58.665 15.902-82.718 35.947-6.655 5.545-13.617 10.824-19.043 18.24-.227.922-.44 1.363-1.149 1.858-.36.133-.24.133-.254.067-.107.4-.334.801-.989 1.282-.294.174-.187.2-.2.134a3.488 3.488 0 0 1-1.016 1.176 12.962 12.962 0 0 0-1.67 1.978c-.334 1.43-1.203 2.124-2.165 3.207-.294.267-.561.521-.548.708-.134 1.377-1.39 1.804-2.044 3.14-.228.348-.321.375-.308.415-.548.561-.855 1.256-1.443 2.218-.374.588-.588.829-.949 1.55-.962.735-.842 1.524-1.27 2.405-.2.281-.267.308-.267.348-.6.534-.628 1.296-1.069 2.272l-.227.28c-.561.562-.641 1.297-1.069 2.272z" style="fill:#f9d8c8;fill-opacity:1;stroke-width:13.3631"/>
  <path fill="#ea5738" d="M444.172 200.335c-.508-8.286 3.06-16.09 3.875-24.562 1.817-18.44-.975-36.094-5.372-53.72-2.085-8.378-4.156-16.824-11.038-23.345-3.635-1.938-3.287-5.172-3.314-8.058-.067-7.483-.227-14.967-.935-22.944.187-2.139.761-3.689.628-5.773a51.448 51.448 0 0 0-.268-1.75 9.889 9.889 0 0 0-1.23-4.21 9.26 9.26 0 0 1-.84-4.718c1.028-3.113 1.335-6.414 5.972-5.104.441.294.388.334.401.307.535.588.602 1.39 1.256 2.272.348.2.214.24.214.174a2.686 2.686 0 0 0 .949 1.256c.267.2.187.214.214.173.655 1.123 1.416 2.219 2.325 3.662.267.307.24.32.254.307.548.575.615 1.35 1.162 2.285 12.749 21.649 20.847 44.46 22.397 69.355.935 14.967.521 29.8-2.405 44.58-2.178 11.104-6.481 21.02-14.245 29.813z" style="fill:#f05232;fill-opacity:1;stroke-width:13.3631"/>
  <path fill="#fcf9f9" d="M73.09 300.25c3.328-.427 3.622-2.431 4.036-5.077 1.203-7.778 2.74-15.528 7.39-22.65 2.673-2.54 4.73-5.426 9.127-3.609 1.885 2.713.668 4.878-.133 7.123-7.537 21.247-8.847 42.869-3.435 64.744 2.272 9.22 7.39 17.132 13.444 24.361 2.405 2.873 5.438 4.985 8.82 6.615 9.701 4.664 17.625 2.499 23.746-6.468 1.71-2.499 2.485-5.612 5.585-7.697 7.257.628 8.593 2.138 8.486 9.354l-.014 2.74c-1.937 3.661-2.98 7.617-7.47 9.287-5.372 1.51-7.443 6.949-12.641 8.352-13.176 3.541-23.773.347-33.167-9.595-7.457-7.884-13.978-15.969-19.23-25.684-3.127-5.786-3.875-11.532-5.693-17.84 2.58-6.4.802-12.588 1.15-18.628.294-4.89-.04-9.808 0-15.327z" style="fill:#f9f6f6;fill-opacity:1;stroke-width:13.3631"/>
  <path fill="#f9d8c8" d="M361.748 160.887c-2.392-3.341-3.247-7.043-.147-10.798.615-.748 1.243-2.499.909-2.846-5.56-5.773-1.19-12.642-2.219-18.882-.4-2.379-.534-4.717-3.5-6.08 4.97-16.397 12.56-31.725 21.18-46.49 9.3-15.956 15.768-33.168 23.653-50.193 6.374.962 6.16 6.548 8.218 11.172.574 2.138.588 3.822.36 6.013-.266 1.764-.801 2.967-1.001 4.73a14.54 14.54 0 0 1-.441 2.86c-1.283 3.1-1.096 6.295-3.836 8.74-7.122 15.862-15.073 30.802-22.904 45.795a229.231 229.231 0 0 0-20.272 55.992z" style="stroke-width:13.3631"/>
  <path fill="#f7c9b6" d="M136.98 52.872c-7.19 15.582-16.276 30.108-21.234 46.558-1.924 6.387-3.755 12.815-5.826 19.683-2.553 5.693-5.827 9.395-12.749 7.31.388-23.359 8.5-44.232 18.722-64.437 2.432-4.81 5.546-9.274 8.713-14.125 2.418-1.296 4.009.04 4.476 1.484 1.377 4.276 4.303 3.995 7.898 3.527z" style="fill:#f9d8c8;fill-opacity:1;stroke-width:13.3631"/>
  <path fill="#fbcba7" d="M96.583 126.61c5.185-.735 9.288-2.7 12.695-6.949-1.069 11.626-1.15 23.413-.788 35.814-.268 10.556-.749 11.225-8.366 11.318a100.264 100.264 0 0 1-3.54-40.17z" style="fill:#f9d8c8;fill-opacity:1;stroke-width:13.3631"/>
  <path fill="#f9d8c8" d="M137.274 53.153c-5.506 5.733-8.552 4.236-9.688-3.234-.107-.681-1.123-1.23-2.165-2.058 4.998-8.82 11.252-16.757 19.19-23.145 3.434-2.766 7.215-3.875 8.338 3.02-4.517 5.212-6.28 11.626-10.37 17.105a7.684 7.684 0 0 0-1.296 1.737c-.094.321-.2.829-.348 1.03l-.895 1.296c-.561 1.002-.868 1.643-1.43 2.539a11.372 11.372 0 0 0-1.256 1.456c-.133.267-.107.227-.08.267z" style="stroke-width:13.3631"/>
  <path fill="#ca6149" d="M409.414 37.478c-3.38-3.514-3.34-8.499-7.002-11.96 2.86-4.236 6.36-2.967 9.862-.615 8.071 5.426 14.298 12.615 19.697 21.114-3.38-.053-3.808 2.512-4.637 5.319-3.782-.401-3.715-3.702-4.784-6.12-3.26-7.35-4.784-8.34-13.136-7.725z" style="fill:#f05232;fill-opacity:1;stroke-width:13.3631"/>
  <path fill="#ebab8e" d="M99.737 166.94c6.2-.735 7.657-4.984 8.392-10.503 1.63 5.024 2.913 10.383 4.276 16.263-7.79 8.485-7.897 8.472-11.479-1.644a45.836 45.836 0 0 1-1.202-4.116z" style="fill:#f9d8c8;fill-opacity:1;stroke-width:13.3631"/>
  <path fill="#f9d8c8" d="M353.182 130.218c-338.381-133.898-338.381-133.898 0 0z" style="stroke-width:13.3631"/>
  <path fill="#ca6149" d="M438.653 56.454c-.401-.2-.869-.789-1.35-1.764.401.214.855.802 1.336 1.777zm34.771 343.673c.107.24-.107.628-.628 1.203-.094-.241.12-.655.641-1.203zm-6.628 9.007c.106.28-.134.695-.695 1.242-.107-.267.133-.681.695-1.242zm-1.217 1.39c.08.267-.146.668-.708 1.202-.093-.267.134-.668.708-1.203zm-5.251 6.534c.093.24-.12.628-.642 1.163-.093-.254.134-.642.642-1.163zm-25.63-367.019c-.268.067-.629-.227-1.07-.868.268-.054.615.24 1.07.882z" style="stroke-width:13.3631"/>
  <path fill="#f9f6f6" d="M378.398 330.398c-2.084 2.886-3.741 5.613-3.674 8.686.294 15.541-7.644 26.098-19.711 34.69-4.356 3.101-7.483 7.952-13.831 7.03-.668-.094-1.617.628-2.205 1.202-12.08 11.787-26.86 10.143-41.292 7.404-5.145-.976-10.717.267-15.662-3.234-8.418-5.933-18.107-10.45-23.599-19.577-3.047-5.051-9.648-5.987-11.84-12.134a26.98 26.98 0 0 1-.013-3.154 2.686 2.686 0 0 0-.748-1.764 2.633 2.633 0 0 1-.508-1.069 4.624 4.624 0 0 0-.668-1.416c-18.762-42.335 3.768-97.003 53.8-105.65 28.584-4.943 55.163 8.66 70.357 37.017 1.83 3.434 3.1 7.15 4.65 11.211a2.98 2.98 0 0 0 .695 1.871 9.595 9.595 0 0 1 .535 2.366c.133.628.307.828.561 1.403.32 1.363.548 2.352.762 3.835a4.143 4.143 0 0 0 .695 2.86c.334 1.27.467 2.245.574 3.701-.026 3.341-.04 6.174.882 9.301 1.19 5.172.174 9.996.24 15.421z" style="stroke-width:13.3631"/>
  <path fill="#39060c" d="M217.707 361.494a12.802 12.802 0 0 0-2.192 3.969 58.65 58.65 0 0 1-15.207 23.198c-4.143 3.983-2.272 6.281 1.39 8.406 6.842 3.955 17.318 1.336 22.076-5.199 2.271-3.113 3.848-8.418 9.314-4.89 5.078 3.287 4.276 7.91 1.75 12.588-8.071 14.98-27.688 20.245-42.054 10.957-3.006-1.95-4.797-1.95-7.804-.053-12.895 8.112-29.946 3.942-38.058-8.953-.681-1.096-1.443-2.259-1.724-3.475-.761-3.42-1.63-7.27 2.245-9.287 3.648-1.924 6.441-.026 8.873 3.06 5.653 7.163 10.825 8.245 17.974 4.584 3.875-1.978 4.316-3.475.414-5.987-9.568-6.16-16.303-14.78-21.207-25.403-6.014-5.506-5.84-9.14.855-15.555 1.898.214 2.94-.575 4.062-1.243 15.087-8.9 30.762-8.98 46.745-2.873 7.216 2.753 12.093 7.484 12.561 16.156z" style="stroke-width:13.3631"/>
  <path fill="#f9f6f6" d="M154.78 348.732c-2.205 5.212-6.415 9.582-1.764 15.568a11.038 11.038 0 0 1-2.54 2.954c-1.883-3.301-2.405-7.658-7.67-8.807-2.9-2.178-2.632-5.104-2.74-7.897a88.49 88.49 0 0 1 2.553-26.446c3.715-14.058 2.913-28.423 2.259-42.695-.308-6.548-2.606-12.722-5.88-18.455-4.704-8.191-13.096-11.626-22.183-8.9-6.628 1.965-12.16 5.6-16.57 10.958-1.497 1.818-2.74 3.97-5.68 4.717-3.715-.735-6.12 1.203-9.22 2.432 1.737-6.681 6.04-12.026 11.051-17.412 1.47-4.343 4.81-5.679 8.673-7.055 12.601-6.348 24.882-8.727 37.082-.134 6.655 4.704 10.33 11.532 13.31 18.842 9.488 23.212 7.19 46.758 1.938 70.37-.842 3.809-1.79 7.59-2.62 11.96z" style="stroke-width:13.3631"/>
  <path fill="#ca6149" d="M405.071 59.607c.268-3.046 1.016-5.933 2.152-9.153 3.18.588 3.608 3.087 3.822 5.412 1.322 14.86 3.287 29.706 1.67 44.66-.561 5.184.067 10.423-.895 15.58-.535 2.94-.642 6.094-3.582 8.62-.855.147-1.149.094-1.87-.013 1.817-15.635 2.846-31.284 2.057-46.985-.307-6.014.054-12.294-3.354-18.12z" style="fill:#c02c1f;fill-opacity:1;stroke-width:13.3631"/>
  <path fill="#d89f68" d="M104.949 247.386c-2.259 2.138-4.945 4.276-7.978 6.709-.749-2.486.548-4.851 1.897-7.63.535-.201.775-.028.802.507 1.457 3.207 3.167.187 5.279.414z" style="fill:#f05232;fill-opacity:1;stroke-width:13.3631"/>
  <path fill="#fef3ea" d="M378.545 314.777c-3.568-1.71-2.525-4.905-1.63-8.312 2.245 2.138 1.403 5.064 1.63 8.312z" style="stroke-width:13.3631"/>
  <path fill="#f9d8c8" d="M359.169 176.588c-1.804-1.336-2.138-3.006.32-4.73a12.36 12.36 0 0 1-.32 4.73z" style="stroke-width:13.3631"/>
  <path fill="#fef3ea" d="M376.942 301.908c-1.203.08-2.392-.214-1.23-2.071.615.427.95 1.069 1.243 2.07z" style="stroke-width:13.3631"/>
  <path fill="#ca6149" d="M111.443 225.163c.107-.828.668-1.737 1.577-2.86.48 1.096.267 2.232-1.577 2.86zm-2.592 3.809a7.924 7.924 0 0 1 1.536-2.887c.374 1.016-.214 1.951-1.536 2.887zm-1.764 2.7a4.784 4.784 0 0 1 1.069-2.246 4.784 4.784 0 0 1-1.07 2.245zm-2.259 3.834c-.026-.427.227-1.029.775-1.844.027.428-.227 1.043-.775 1.844zm-1.35 2.58c-.066-.482.16-1.176.722-2.085.08.48-.16 1.176-.721 2.085zm-1.282 2.565c-.107-.508.107-1.216.668-2.138.107.508-.134 1.216-.668 2.138zm-2.432 6.401c-.281.294-.401-.334-.495-.641a3.488 3.488 0 0 1 .802-1.831c.187.588.093 1.39-.307 2.472zm15.447-27.167c-.093-.24.107-.642.628-1.176.107.254-.106.641-.628 1.176zm2.379-2.74c-.134-.28.12-.708.682-1.296.12.267-.107.722-.682 1.296zm-1.203 1.404c-.133-.281.08-.709.628-1.27.134.267-.093.695-.628 1.27z" style="stroke-width:13.3631"/>
  <path fill="#3c060c" d="M228.758 156.838c-.027.133-.227-.334-.267-.575z" style="stroke-width:13.3631"/>
  <path fill="#fef3ea" d="M374.363 291.471c-.401.08-.668-.267-.856-1.029.268 0 .562.334.856 1.03zm1.029 3.929c-.321.067-.521-.227-.668-.842.32-.093.56.174.668.842zm-129.756 54.241c.294-.027.574.32.908.989-.267 0-.588-.32-.908-.989zm-1.203-2.633c.374-.106.628.2.842.896-.388.16-.682-.134-.842-.896z" style="stroke-width:13.3631"/>
  <path fill="#f9f6f6" d="M142.82 379.24c1.817-2.966 4.142-5.96 6.882-9.033.066 4.383-1.15 8.218-6.896 9.033z" style="stroke-width:13.3631"/>
  <path fill="#eaaf93" d="M374.136 432.626c-.228 1.163-1.323 1.417-2.967 1.443a9.581 9.581 0 0 1 2.953-1.456zm1.456-1.203c.054.241-.214.615-.788 1.15-.054-.227.214-.602.788-1.136z" style="stroke-width:13.3631"/>
  <path fill="#430609" d="M409.214 60.703a94.718 94.718 0 0 0-1.296-10.129 5.305 5.305 0 0 1-.321-2.192c.374-1.51.214-3.207 1.23-10.53 5.144-4.583 9.487-4.062 12.935 1.136 2.392 3.608 3.554 7.75 5.104 12.267.99 2.767 1.47 5.546 2.219 8.34.641 1.522.454 2.966.708 4.583.267 11.385.775 22.29 1.35 33.808-.535 9.22-1.163 17.854-1.818 26.486-.267 3.448-.187 6.32 4.704 4.49 1.457-.561 3.127-.24 3.916 1.417.868 1.804-.508 3.26-1.738 3.701-9.915 3.568-9.087 12.562-10.69 20.42-3.876 18.935-8.112 37.763-18.107 54.654-4.864 8.219-8.78 9.288-16.196 5.225-2.673-1.456-3.742-3.033-2.432-6.24 22.37-64.718 22.65-115.658 20.432-147.436z" style="stroke-width:13.3631"/>
  <path fill="#39060c" d="M93.977 270.104c2.593-3.675 4.784-7.243 7.724-10.023 13.377-12.655 35.88-15.808 43.297 11.172 4.29 15.568 3.635 31.537 1.015 47.225-2.138 12.855-5.05 25.524-3.688 39.288-.12.788-.32.935-.374 1.122-7.75 22.584-28.423 22.758-41.933 5.786-9.315-11.706-14.152-25.069-15.234-40.009-1.123-15.1.841-29.826 4.343-44.405.815-3.408 3.167-6.468 4.85-10.156zm192.43 102.334c-24.134-14.138-36.348-39.902-32.647-67.523 2.379-17.8 8.526-33.595 23.386-44.66 20.7-15.394 47.011-14.753 67.083 2.566 38.913 33.541 23.345 94.397-13.951 110.513-14.726 6.36-29.052 5.826-43.871-.896z" style="stroke-width:13.3631"/>
  <path fill="#f3e2d6" d="M187.44 351.204c3.113.441 5.692.749 8.23 1.23.803.16 1.51.802 3.101 1.684-9.835 4.917-19.123 3.086-28.544.668 4.958-3.929 10.865-3.541 17.212-3.582z" style="fill:#f9d8c8;fill-opacity:1;stroke-width:13.3631"/>
  <path fill="#fcf9f9" d="M142.125 285.164c-.642 14.285-14.566 21.982-26.94 15.581-6.588-3.42-10.023-8.606-9.381-16.263.628-7.31 4.049-12.895 10.677-15.848 13.296-5.934 24.24 1.042 25.644 16.53zm150.482-8.045c4.784-11.318 12.428-15.501 24.535-13.91 9.234 1.202 17.358 8.966 18.334 17.505 1.296 11.345-7.323 21.314-19.443 22.517-11.185 1.109-22.851-7.925-23.653-18.415-.174-2.378.053-4.784.227-7.697z" style="fill:#f9f6f6;fill-opacity:1;stroke-width:13.3631"/>
</svg>
